<svg id="Layer_1" data-name="Layer 1" xmlns="http://www.w3.org/2000/svg" viewBox="0 0 512 512"><defs><style>.cls-1{fill:#141f38;}</style></defs><title>user-chat-bubble-outline</title><path class="cls-1" d="M321.64,301.95a6.56,6.56,0,0,0,6.56-6.56V246.71a72.44,72.44,0,0,0,52.51-69.48v-105A72.29,72.29,0,0,0,308.51,0H98.46A72.29,72.29,0,0,0,26.25,72.21v105a72.29,72.29,0,0,0,72.21,72.21H266.41L317,300A6.56,6.56,0,0,0,321.64,301.95Zm-6.56-22.41-41.31-41.31a6.56,6.56,0,0,0-4.64-1.92H98.46a59.14,59.14,0,0,1-59.08-59.08v-105A59.14,59.14,0,0,1,98.46,13.13H308.51a59.14,59.14,0,0,1,59.08,59.08v105a59.23,59.23,0,0,1-47.26,57.89,6.56,6.56,0,0,0-5.26,6.43Z"/><path class="cls-1" d="M295.38,91.9H111.59a6.56,6.56,0,1,0,0,13.13H295.38a6.56,6.56,0,0,0,0-13.13Z"/><path class="cls-1" d="M190.36,144.41H111.59a6.56,6.56,0,1,0,0,13.13h78.77a6.56,6.56,0,0,0,0-13.13Z"/><path class="cls-1" d="M484.29,477.68c-9.07-25.4-29.79-44.63-55.23-53a52.51,52.51,0,1,0-57.31,0c-25.44,8.36-46.16,27.6-55.23,53a24.64,24.64,0,0,0,3.21,22.74A27.59,27.59,0,0,0,342.32,512H458.5a27.59,27.59,0,0,0,22.58-11.58A24.64,24.64,0,0,0,484.29,477.68ZM361,380.72a39.38,39.38,0,1,1,39.38,39.38A39.43,39.43,0,0,1,361,380.72ZM470.35,492.86a14.45,14.45,0,0,1-11.85,6H342.32a14.45,14.45,0,0,1-11.85-6,11.59,11.59,0,0,1-1.58-10.76c10.45-29.23,39.19-48.87,71.53-48.87s61.08,19.64,71.53,48.87A11.6,11.6,0,0,1,470.35,492.86Z"/></svg>